<?xml version="1.0" encoding="UTF-8" standalone="no"?>
<!DOCTYPE svg PUBLIC "-//W3C//DTD SVG 1.1//EN"
 "http://www.w3.org/Graphics/SVG/1.1/DTD/svg11.dtd">
<!-- Generated by graphviz version 2.40.1 (20161225.0304)
 -->
<!-- Title: dependencies Pages: 1 -->
<svg width="504pt" height="211pt"
 viewBox="0.00 0.00 504.00 211.00" xmlns="http://www.w3.org/2000/svg" xmlns:xlink="http://www.w3.org/1999/xlink">
<g id="graph0" class="graph" transform="scale(1 1) rotate(0) translate(4 207)">
<title>dependencies</title>
<polygon fill="#ffffff" stroke="transparent" points="-4,4 -4,-207 500,-207 500,4 -4,4"/>
<text text-anchor="start" x="227.0091" y="-42.4" font-family="sans-serif" font-weight="bold" font-size="14.00" fill="#000000">Legend</text>
<polygon fill="#ffffb3" stroke="transparent" points="14,-10 14,-30 34,-30 34,-10 14,-10"/>
<text text-anchor="start" x="37.629" y="-15.4" font-family="sans-serif" font-size="14.00" fill="#000000"> &#160;Declarations</text>
<polygon fill="#8dd3c7" stroke="transparent" points="127,-10 127,-30 147,-30 147,-10 127,-10"/>
<text text-anchor="start" x="150.7251" y="-15.4" font-family="sans-serif" font-size="14.00" fill="#000000"> &#160;Module</text>
<polygon fill="#80b1d3" stroke="transparent" points="213,-10 213,-30 233,-30 233,-10 213,-10"/>
<text text-anchor="start" x="236.7812" y="-15.4" font-family="sans-serif" font-size="14.00" fill="#000000"> &#160;Bootstrap</text>
<polygon fill="#fdb462" stroke="transparent" points="310,-10 310,-30 330,-30 330,-10 310,-10"/>
<text text-anchor="start" x="333.6732" y="-15.4" font-family="sans-serif" font-size="14.00" fill="#000000"> &#160;Providers</text>
<polygon fill="#fb8072" stroke="transparent" points="406,-10 406,-30 426,-30 426,-10 406,-10"/>
<text text-anchor="start" x="429.7258" y="-15.4" font-family="sans-serif" font-size="14.00" fill="#000000"> &#160;Exports</text>
<g id="clust1" class="cluster">
<title>cluster_ArticlesModule</title>
<polygon fill="none" stroke="#000000" stroke-dasharray="1,5" points="94,-70 94,-195 402,-195 402,-70 94,-70"/>
</g>
<g id="clust3" class="cluster">
<title>cluster_ArticlesModule_imports</title>
<polygon fill="none" stroke="#000000" points="268,-78 268,-130 394,-130 394,-78 268,-78"/>
</g>
<g id="clust6" class="cluster">
<title>cluster_ArticlesModule_providers</title>
<polygon fill="none" stroke="#000000" points="102,-78 102,-130 260,-130 260,-78 102,-78"/>
</g>
<!-- DatabaseModule -->
<g id="node1" class="node">
<title>DatabaseModule</title>
<polygon fill="#8dd3c7" stroke="#000000" points="386.3501,-122 383.3501,-126 362.3501,-126 359.3501,-122 275.6499,-122 275.6499,-86 386.3501,-86 386.3501,-122"/>
<text text-anchor="middle" x="331" y="-99.8" font-family="Times,serif" font-size="14.00" fill="#000000">DatabaseModule</text>
</g>
<!-- ArticlesModule -->
<g id="node2" class="node">
<title>ArticlesModule</title>
<polygon fill="#8dd3c7" stroke="#000000" points="307.8627,-187 304.8627,-191 283.8627,-191 280.8627,-187 204.1373,-187 204.1373,-151 307.8627,-151 307.8627,-187"/>
<text text-anchor="middle" x="256" y="-164.8" font-family="Times,serif" font-size="14.00" fill="#000000">ArticlesModule</text>
</g>
<!-- DatabaseModule&#45;&gt;ArticlesModule -->
<g id="edge1" class="edge">
<title>DatabaseModule&#45;&gt;ArticlesModule</title>
<path fill="none" stroke="#000000" d="M291.7532,-122.1061C291.7532,-122.1061 291.7532,-140.991 291.7532,-140.991"/>
<polygon fill="#000000" stroke="#000000" points="288.2532,-140.9909 291.7532,-150.991 295.2532,-140.991 288.2532,-140.9909"/>
</g>
<!-- ArticlesService -->
<g id="node3" class="node">
<title>ArticlesService</title>
<ellipse fill="#fdb462" stroke="#000000" cx="181" cy="-104" rx="70.6162" ry="18"/>
<text text-anchor="middle" x="181" y="-99.8" font-family="Times,serif" font-size="14.00" fill="#000000">ArticlesService</text>
</g>
<!-- ArticlesService&#45;&gt;ArticlesModule -->
<g id="edge2" class="edge">
<title>ArticlesService&#45;&gt;ArticlesModule</title>
<path fill="none" stroke="#000000" d="M227.8134,-117.468C227.8134,-117.468 227.8134,-140.8642 227.8134,-140.8642"/>
<polygon fill="#000000" stroke="#000000" points="224.3135,-140.8641 227.8134,-150.8642 231.3135,-140.8642 224.3135,-140.8641"/>
</g>
</g>
</svg>
