<?xml version="1.0" encoding="UTF-8" standalone="no"?>
<!DOCTYPE svg PUBLIC "-//W3C//DTD SVG 1.1//EN"
 "http://www.w3.org/Graphics/SVG/1.1/DTD/svg11.dtd">
<!-- Generated by graphviz version 2.40.1 (20161225.0304)
 -->
<!-- Title: dependencies Pages: 1 -->
<svg width="1560pt" height="352pt"
 viewBox="0.00 0.00 1560.00 352.00" xmlns="http://www.w3.org/2000/svg" xmlns:xlink="http://www.w3.org/1999/xlink">
<g id="graph0" class="graph" transform="scale(1 1) rotate(0) translate(4 348)">
<title>dependencies</title>
<polygon fill="#ffffff" stroke="transparent" points="-4,4 -4,-348 1556,-348 1556,4 -4,4"/>
<text text-anchor="start" x="755.0091" y="-42.4" font-family="sans-serif" font-weight="bold" font-size="14.00" fill="#000000">Legend</text>
<polygon fill="#ffffb3" stroke="transparent" points="542,-10 542,-30 562,-30 562,-10 542,-10"/>
<text text-anchor="start" x="565.629" y="-15.4" font-family="sans-serif" font-size="14.00" fill="#000000"> &#160;Declarations</text>
<polygon fill="#8dd3c7" stroke="transparent" points="655,-10 655,-30 675,-30 675,-10 655,-10"/>
<text text-anchor="start" x="678.7251" y="-15.4" font-family="sans-serif" font-size="14.00" fill="#000000"> &#160;Module</text>
<polygon fill="#80b1d3" stroke="transparent" points="741,-10 741,-30 761,-30 761,-10 741,-10"/>
<text text-anchor="start" x="764.7812" y="-15.4" font-family="sans-serif" font-size="14.00" fill="#000000"> &#160;Bootstrap</text>
<polygon fill="#fdb462" stroke="transparent" points="838,-10 838,-30 858,-30 858,-10 838,-10"/>
<text text-anchor="start" x="861.6732" y="-15.4" font-family="sans-serif" font-size="14.00" fill="#000000"> &#160;Providers</text>
<polygon fill="#fb8072" stroke="transparent" points="934,-10 934,-30 954,-30 954,-10 934,-10"/>
<text text-anchor="start" x="957.7258" y="-15.4" font-family="sans-serif" font-size="14.00" fill="#000000"> &#160;Exports</text>
<g id="clust1" class="cluster">
<title>cluster_AppModule</title>
<polygon fill="none" stroke="#000000" stroke-dasharray="1,5" points="948,-70 948,-336 1206,-336 1206,-70 948,-70"/>
</g>
<g id="clust3" class="cluster">
<title>cluster_AppModule_imports</title>
<polygon fill="none" stroke="#000000" points="956,-78 956,-271 1186,-271 1186,-78 956,-78"/>
</g>
<g id="clust7" class="cluster">
<title>cluster_ArticlesModule</title>
<polygon fill="none" stroke="#000000" stroke-dasharray="1,5" points="1214,-70 1214,-138 1388,-138 1388,-70 1214,-70"/>
</g>
<g id="clust12" class="cluster">
<title>cluster_ArticlesModule_providers</title>
<polygon fill="none" stroke="#000000" points="1222,-78 1222,-130 1380,-130 1380,-78 1222,-78"/>
</g>
<g id="clust13" class="cluster">
<title>cluster_AuthModule</title>
<polygon fill="none" stroke="#000000" stroke-dasharray="1,5" points="8,-146 8,-214 940,-214 940,-146 8,-146"/>
</g>
<g id="clust18" class="cluster">
<title>cluster_AuthModule_providers</title>
<polygon fill="none" stroke="#000000" points="16,-154 16,-206 932,-206 932,-154 16,-154"/>
</g>
<g id="clust25" class="cluster">
<title>cluster_UsersModule</title>
<polygon fill="none" stroke="#000000" stroke-dasharray="1,5" points="1396,-70 1396,-138 1544,-138 1544,-70 1396,-70"/>
</g>
<g id="clust30" class="cluster">
<title>cluster_UsersModule_providers</title>
<polygon fill="none" stroke="#000000" points="1404,-78 1404,-130 1536,-130 1536,-78 1404,-78"/>
</g>
<!-- ArticlesModule -->
<g id="node1" class="node">
<title>ArticlesModule</title>
<polygon fill="#8dd3c7" stroke="#000000" points="1067.8627,-198 1064.8627,-202 1043.8627,-202 1040.8627,-198 964.1373,-198 964.1373,-162 1067.8627,-162 1067.8627,-198"/>
<text text-anchor="middle" x="1016" y="-175.8" font-family="Times,serif" font-size="14.00" fill="#000000">ArticlesModule</text>
</g>
<!-- AppModule -->
<g id="node5" class="node">
<title>AppModule</title>
<polygon fill="#8dd3c7" stroke="#000000" points="1147.6571,-328 1144.6571,-332 1123.6571,-332 1120.6571,-328 1064.3429,-328 1064.3429,-292 1147.6571,-292 1147.6571,-328"/>
<text text-anchor="middle" x="1106" y="-305.8" font-family="Times,serif" font-size="14.00" fill="#000000">AppModule</text>
</g>
<!-- ArticlesModule&#45;&gt;AppModule -->
<g id="edge1" class="edge">
<title>ArticlesModule&#45;&gt;AppModule</title>
<path fill="none" stroke="#000000" d="M1057.9727,-198.0759C1057.9727,-233.7964 1057.9727,-310 1057.9727,-310 1057.9727,-310 1058.6005,-310 1058.6005,-310"/>
<polygon fill="#000000" stroke="#000000" points="1054.2514,-313.5002 1064.2514,-310 1054.2513,-306.5002 1054.2514,-313.5002"/>
</g>
<!-- AuthModule -->
<g id="node2" class="node">
<title>AuthModule</title>
<polygon fill="#8dd3c7" stroke="#000000" points="1051.5482,-263 1048.5482,-267 1027.5482,-267 1024.5482,-263 964.4518,-263 964.4518,-227 1051.5482,-227 1051.5482,-263"/>
<text text-anchor="middle" x="1008" y="-240.8" font-family="Times,serif" font-size="14.00" fill="#000000">AuthModule</text>
</g>
<!-- AuthModule&#45;&gt;AppModule -->
<g id="edge2" class="edge">
<title>AuthModule&#45;&gt;AppModule</title>
<path fill="none" stroke="#000000" d="M1051.7687,-251C1065.4841,-251 1077.1104,-251 1077.1104,-251 1077.1104,-251 1077.1104,-281.9775 1077.1104,-281.9775"/>
<polygon fill="#000000" stroke="#000000" points="1073.6105,-281.9774 1077.1104,-291.9775 1080.6105,-281.9775 1073.6105,-281.9774"/>
</g>
<!-- DatabaseModule -->
<g id="node3" class="node">
<title>DatabaseModule</title>
<polygon fill="#8dd3c7" stroke="#000000" points="1178.3501,-122 1175.3501,-126 1154.3501,-126 1151.3501,-122 1067.6499,-122 1067.6499,-86 1178.3501,-86 1178.3501,-122"/>
<text text-anchor="middle" x="1123" y="-99.8" font-family="Times,serif" font-size="14.00" fill="#000000">DatabaseModule</text>
</g>
<!-- DatabaseModule&#45;&gt;ArticlesModule -->
<g id="edge5" class="edge">
<title>DatabaseModule&#45;&gt;ArticlesModule</title>
<path fill="none" stroke="#000000" d="M1072.5209,-122.0109C1072.5209,-144.4852 1072.5209,-180 1072.5209,-180 1072.5209,-180 1072.0774,-180 1072.0774,-180"/>
<polygon fill="#000000" stroke="#000000" points="1078.0859,-176.5003 1068.0858,-180 1078.0857,-183.5003 1078.0859,-176.5003"/>
</g>
<!-- UsersModule -->
<g id="node4" class="node">
<title>UsersModule</title>
<polygon fill="#8dd3c7" stroke="#000000" points="1177.9218,-198 1174.9218,-202 1153.9218,-202 1150.9218,-198 1086.0782,-198 1086.0782,-162 1177.9218,-162 1177.9218,-198"/>
<text text-anchor="middle" x="1132" y="-175.8" font-family="Times,serif" font-size="14.00" fill="#000000">UsersModule</text>
</g>
<!-- DatabaseModule&#45;&gt;UsersModule -->
<g id="edge14" class="edge">
<title>DatabaseModule&#45;&gt;UsersModule</title>
<path fill="none" stroke="#000000" d="M1132,-122.0109C1132,-122.0109 1132,-151.855 1132,-151.855"/>
<polygon fill="#000000" stroke="#000000" points="1128.5001,-151.8549 1132,-161.855 1135.5001,-151.855 1128.5001,-151.8549"/>
</g>
<!-- DatabaseModule&#45;&gt;AppModule -->
<g id="edge3" class="edge">
<title>DatabaseModule&#45;&gt;AppModule</title>
<path fill="none" stroke="#000000" d="M1081.7,-122.2811C1081.7,-122.2811 1081.7,-281.7598 1081.7,-281.7598"/>
<polygon fill="#000000" stroke="#000000" points="1078.2001,-281.7598 1081.7,-291.7598 1085.2001,-281.7599 1078.2001,-281.7598"/>
</g>
<!-- UsersModule&#45;&gt;AuthModule -->
<g id="edge7" class="edge">
<title>UsersModule&#45;&gt;AuthModule</title>
<path fill="none" stroke="#000000" d="M1106.8025,-198.0225C1106.8025,-215.3734 1106.8025,-239 1106.8025,-239 1106.8025,-239 1061.6238,-239 1061.6238,-239"/>
<polygon fill="#000000" stroke="#000000" points="1061.6238,-235.5001 1051.6238,-239 1061.6238,-242.5001 1061.6238,-235.5001"/>
</g>
<!-- UsersModule&#45;&gt;AppModule -->
<g id="edge4" class="edge">
<title>UsersModule&#45;&gt;AppModule</title>
<path fill="none" stroke="#000000" d="M1127.3153,-198.0759C1127.3153,-198.0759 1127.3153,-281.6585 1127.3153,-281.6585"/>
<polygon fill="#000000" stroke="#000000" points="1123.8154,-281.6585 1127.3153,-291.6585 1130.8154,-281.6585 1123.8154,-281.6585"/>
</g>
<!-- ArticlesService -->
<g id="node6" class="node">
<title>ArticlesService</title>
<ellipse fill="#fdb462" stroke="#000000" cx="1301" cy="-104" rx="70.6162" ry="18"/>
<text text-anchor="middle" x="1301" y="-99.8" font-family="Times,serif" font-size="14.00" fill="#000000">ArticlesService</text>
</g>
<!-- ArticlesService&#45;&gt;ArticlesModule -->
<g id="edge6" class="edge">
<title>ArticlesService&#45;&gt;ArticlesModule</title>
<path fill="none" stroke="#000000" d="M1301,-122.1097C1301,-131.897 1301,-142 1301,-142 1301,-142 1015.8219,-142 1015.8219,-142 1015.8219,-142 1015.8219,-151.8903 1015.8219,-151.8903"/>
<polygon fill="#000000" stroke="#000000" points="1012.3219,-151.8903 1015.8219,-161.8903 1019.3219,-151.8904 1012.3219,-151.8903"/>
</g>
<!-- AuthService -->
<g id="node7" class="node">
<title>AuthService</title>
<ellipse fill="#fdb462" stroke="#000000" cx="865" cy="-180" rx="59.1083" ry="18"/>
<text text-anchor="middle" x="865" y="-175.8" font-family="Times,serif" font-size="14.00" fill="#000000">AuthService</text>
</g>
<!-- AuthService&#45;&gt;AuthModule -->
<g id="edge8" class="edge">
<title>AuthService&#45;&gt;AuthModule</title>
<path fill="none" stroke="#000000" d="M865,-198.2396C865,-213.5706 865,-233 865,-233 865,-233 954.3183,-233 954.3183,-233"/>
<polygon fill="#000000" stroke="#000000" points="954.3183,-236.5001 964.3183,-233 954.3182,-229.5001 954.3183,-236.5001"/>
</g>
<!-- FacebookStrategy -->
<g id="node8" class="node">
<title>FacebookStrategy</title>
<ellipse fill="#fdb462" stroke="#000000" cx="707" cy="-180" rx="80.52" ry="18"/>
<text text-anchor="middle" x="707" y="-175.8" font-family="Times,serif" font-size="14.00" fill="#000000">FacebookStrategy</text>
</g>
<!-- FacebookStrategy&#45;&gt;AuthModule -->
<g id="edge9" class="edge">
<title>FacebookStrategy&#45;&gt;AuthModule</title>
<path fill="none" stroke="#000000" d="M707,-198.0336C707,-215.0597 707,-238 707,-238 707,-238 954.232,-238 954.232,-238"/>
<polygon fill="#000000" stroke="#000000" points="954.2321,-241.5001 964.232,-238 954.232,-234.5001 954.2321,-241.5001"/>
</g>
<!-- GoogleStrategy -->
<g id="node9" class="node">
<title>GoogleStrategy</title>
<ellipse fill="#fdb462" stroke="#000000" cx="537" cy="-180" rx="71.7892" ry="18"/>
<text text-anchor="middle" x="537" y="-175.8" font-family="Times,serif" font-size="14.00" fill="#000000">GoogleStrategy</text>
</g>
<!-- GoogleStrategy&#45;&gt;AuthModule -->
<g id="edge10" class="edge">
<title>GoogleStrategy&#45;&gt;AuthModule</title>
<path fill="none" stroke="#000000" d="M537,-198.2222C537,-216.8285 537,-243 537,-243 537,-243 954.1124,-243 954.1124,-243"/>
<polygon fill="#000000" stroke="#000000" points="954.1125,-246.5001 964.1124,-243 954.1124,-239.5001 954.1125,-246.5001"/>
</g>
<!-- JwtStrategy -->
<g id="node10" class="node">
<title>JwtStrategy</title>
<ellipse fill="#fdb462" stroke="#000000" cx="391" cy="-180" rx="56.7561" ry="18"/>
<text text-anchor="middle" x="391" y="-175.8" font-family="Times,serif" font-size="14.00" fill="#000000">JwtStrategy</text>
</g>
<!-- JwtStrategy&#45;&gt;AuthModule -->
<g id="edge11" class="edge">
<title>JwtStrategy&#45;&gt;AuthModule</title>
<path fill="none" stroke="#000000" d="M391,-198.2228C391,-218.3652 391,-248 391,-248 391,-248 954.1215,-248 954.1215,-248"/>
<polygon fill="#000000" stroke="#000000" points="954.1215,-251.5001 964.1215,-248 954.1215,-244.5001 954.1215,-251.5001"/>
</g>
<!-- LocalStrategy -->
<g id="node11" class="node">
<title>LocalStrategy</title>
<ellipse fill="#fdb462" stroke="#000000" cx="251" cy="-180" rx="65.4053" ry="18"/>
<text text-anchor="middle" x="251" y="-175.8" font-family="Times,serif" font-size="14.00" fill="#000000">LocalStrategy</text>
</g>
<!-- LocalStrategy&#45;&gt;AuthModule -->
<g id="edge12" class="edge">
<title>LocalStrategy&#45;&gt;AuthModule</title>
<path fill="none" stroke="#000000" d="M251,-198.0449C251,-219.6623 251,-253 251,-253 251,-253 954.3054,-253 954.3054,-253"/>
<polygon fill="#000000" stroke="#000000" points="954.3054,-256.5001 964.3054,-253 954.3053,-249.5001 954.3054,-256.5001"/>
</g>
<!-- TwitterStrategy -->
<g id="node12" class="node">
<title>TwitterStrategy</title>
<ellipse fill="#fdb462" stroke="#000000" cx="96" cy="-180" rx="71.7815" ry="18"/>
<text text-anchor="middle" x="96" y="-175.8" font-family="Times,serif" font-size="14.00" fill="#000000">TwitterStrategy</text>
</g>
<!-- TwitterStrategy&#45;&gt;AuthModule -->
<g id="edge13" class="edge">
<title>TwitterStrategy&#45;&gt;AuthModule</title>
<path fill="none" stroke="#000000" d="M96,-198.0908C96,-221.1328 96,-258 96,-258 96,-258 954.3196,-258 954.3196,-258"/>
<polygon fill="#000000" stroke="#000000" points="954.3196,-261.5001 964.3196,-258 954.3196,-254.5001 954.3196,-261.5001"/>
</g>
<!-- UserService -->
<g id="node13" class="node">
<title>UserService</title>
<ellipse fill="#fdb462" stroke="#000000" cx="1470" cy="-104" rx="58.4415" ry="18"/>
<text text-anchor="middle" x="1470" y="-99.8" font-family="Times,serif" font-size="14.00" fill="#000000">UserService</text>
</g>
<!-- UserService&#45;&gt;UsersModule -->
<g id="edge15" class="edge">
<title>UserService&#45;&gt;UsersModule</title>
<path fill="none" stroke="#000000" d="M1470,-122.0109C1470,-144.4852 1470,-180 1470,-180 1470,-180 1187.9359,-180 1187.9359,-180"/>
<polygon fill="#000000" stroke="#000000" points="1187.936,-176.5001 1177.9359,-180 1187.9359,-183.5001 1187.936,-176.5001"/>
</g>
</g>
</svg>
